<svg width="138" height="37" viewBox="0 0 138 37" fill="none" xmlns="http://www.w3.org/2000/svg">
<g clip-path="url(#clip0_1723_10724)">
<path d="M16.253 29.6383V36.9125H5.84781C3.20439 36.9112 1.05859 34.7633 1.05859 32.1131V17.2072H8.30545V28.1231C8.30545 28.9605 8.98223 29.637 9.81693 29.637H16.253V29.6383Z" fill="url(#paint0_linear_1723_10724)"/>
<path d="M11.806 1V8.25826H9.81812C8.9821 8.25826 8.30399 8.9361 8.30399 9.77344V14.2605H1.05713V5.80074C1.05713 3.14917 3.20292 1 5.849 1H11.806Z" fill="url(#paint1_linear_1723_10724)"/>
<path d="M21.6668 1C24.3129 1 26.4587 3.14917 26.4587 5.79941L26.4427 36.9125H19.1959V9.77211C19.1959 8.93477 18.5191 8.25693 17.6844 8.25693H14.749V1H21.6668Z" fill="url(#paint2_linear_1723_10724)"/>
<path d="M43.4497 3.61414H46.3916V14.3393H52.0457V17.1325H43.4497V3.61414Z" fill="white"/>
<path d="M58.5452 16.3031H58.3577C58.0546 16.6302 57.7109 16.8993 57.3313 17.1137C56.9485 17.3281 56.4548 17.4329 55.8517 17.4329C55.3846 17.4329 54.9487 17.3578 54.5409 17.2076C54.1331 17.0574 53.7738 16.843 53.466 16.566C53.1582 16.289 52.9161 15.9557 52.7427 15.5645C52.5661 15.1749 52.4771 14.7399 52.4771 14.2626C52.4771 13.7854 52.5708 13.3738 52.7614 12.9904C52.9489 12.6055 53.2067 12.2769 53.5332 11.9999C53.8597 11.7214 54.2456 11.5086 54.6909 11.3552C55.1393 11.205 55.6236 11.1299 56.1517 11.1299C56.7173 11.1299 57.186 11.1674 57.5562 11.2425C57.9265 11.3177 58.2562 11.4069 58.5452 11.5086V11.2613C58.5452 10.8592 58.3796 10.518 58.0468 10.2333C57.7109 9.95159 57.2641 9.80919 56.6985 9.80919C55.8814 9.80919 55.1783 10.1425 54.5878 10.8107L52.663 9.44928C53.191 8.82023 53.805 8.35079 54.5018 8.04409C55.1987 7.73583 55.9689 7.57935 56.811 7.57935C58.3202 7.57935 59.4576 7.91734 60.2247 8.58864C60.9918 9.26307 61.3746 10.2849 61.3746 11.6588V17.134H58.5468V16.3047L58.5452 16.3031ZM58.5452 13.488C58.2562 13.3754 57.9718 13.2862 57.6875 13.222C57.4063 13.161 57.1141 13.1281 56.811 13.1281C56.3095 13.1281 55.9314 13.233 55.6799 13.4395C55.4299 13.6492 55.3049 13.9152 55.3049 14.2423C55.3049 14.5693 55.4236 14.8306 55.6611 15.0262C55.9001 15.2218 56.2142 15.3189 56.6048 15.3189C56.9188 15.3189 57.1969 15.2657 57.4437 15.1577C57.6875 15.0497 57.8921 14.9104 58.0546 14.7336C58.2187 14.5568 58.3421 14.3596 58.4218 14.1406C58.5046 13.9199 58.5452 13.7024 58.5452 13.488Z" fill="white"/>
<path d="M62.6855 3.61414H65.5134V7.16467L65.3228 9.05182H65.5134C65.8009 8.59803 66.1836 8.24126 66.6602 7.97524C67.1398 7.71235 67.6788 7.57778 68.2819 7.57778C69.4505 7.57778 70.3254 7.93143 70.9019 8.63559C71.4815 9.34131 71.7706 10.335 71.7706 11.6181V17.1309H68.9427V11.9404C68.9427 11.435 68.824 11.025 68.5865 10.7027C68.3475 10.3835 67.9756 10.2223 67.4741 10.2223C66.8336 10.2223 66.3461 10.4664 66.0133 10.9578C65.6806 11.4491 65.515 12.0907 65.515 12.8825V17.1309H62.6871V3.61414H62.6855Z" fill="white"/>
<path d="M77.5917 7.57935C78.3072 7.57935 78.9697 7.70297 79.5806 7.94707C80.1899 8.19431 80.7179 8.53231 81.1617 8.96733C81.61 9.40234 81.9553 9.92029 82.199 10.5243C82.4428 11.1283 82.5662 11.7887 82.5662 12.5069C82.5662 13.2252 82.4428 13.8839 82.199 14.4895C81.9553 15.0935 81.6085 15.6146 81.1617 16.0496C80.7164 16.4815 80.1883 16.8226 79.5806 17.0667C78.9697 17.314 78.3072 17.4345 77.5917 17.4345C76.8761 17.4345 76.2137 17.314 75.6028 17.0667C74.9935 16.8226 74.4654 16.4815 74.0217 16.0496C73.5733 15.6146 73.2281 15.0935 72.9843 14.4895C72.7406 13.8855 72.6172 13.2252 72.6172 12.5069C72.6172 11.7887 72.7406 11.1299 72.9843 10.5243C73.2281 9.92029 73.5749 9.40234 74.0217 8.96733C74.467 8.53231 74.9951 8.19431 75.6028 7.94707C76.2137 7.70297 76.8761 7.57935 77.5917 7.57935ZM77.5917 14.7915C77.8807 14.7915 78.1541 14.7383 78.4119 14.6303C78.6697 14.5224 78.8978 14.3722 79.0978 14.1766C79.2993 13.9825 79.4571 13.7447 79.5696 13.4599C79.6821 13.1782 79.7384 12.8606 79.7384 12.5069C79.7384 12.1533 79.6821 11.8403 79.5696 11.5649C79.4571 11.2879 79.2993 11.0485 79.0978 10.8482C78.8963 10.6464 78.6682 10.4914 78.4119 10.3835C78.1541 10.2755 77.8807 10.2223 77.5917 10.2223C77.3027 10.2223 77.0293 10.2755 76.7715 10.3835C76.5137 10.4914 76.284 10.6464 76.0856 10.8482C75.8825 11.0501 75.7263 11.2895 75.6138 11.5649C75.5013 11.8419 75.445 12.1548 75.445 12.5069C75.445 12.859 75.5013 13.1782 75.6138 13.4599C75.7263 13.7447 75.8825 13.9841 76.0856 14.1766C76.284 14.3722 76.5152 14.5224 76.7715 14.6303C77.0293 14.7383 77.3027 14.7915 77.5917 14.7915Z" fill="white"/>
<path d="M83.4473 7.88139H86.0861V9.05186H86.2767C86.5267 8.64971 86.886 8.30232 87.3484 8.01283C87.8156 7.72335 88.3296 7.57782 88.8952 7.57782C89.2326 7.57782 89.531 7.62007 89.7795 7.70457C90.031 7.7875 90.2372 7.87826 90.4013 7.98154L89.667 10.5056C89.5029 10.4164 89.3311 10.3491 89.1498 10.299C88.967 10.2489 88.7311 10.2239 88.4421 10.2239C87.739 10.2239 87.2 10.468 86.8313 10.9594C86.461 11.4507 86.2767 12.0923 86.2767 12.8841V17.1325H83.4488V7.88139H83.4473Z" fill="white"/>
<path d="M99.497 14.8854C99.0439 15.6772 98.4518 16.3016 97.7175 16.7538C96.9801 17.2076 96.0927 17.4329 95.0506 17.4329C94.335 17.4329 93.6695 17.3093 93.0617 17.0652C92.4524 16.818 91.9228 16.4768 91.4697 16.0371C91.0166 15.5959 90.6651 15.0763 90.4135 14.4801C90.162 13.8808 90.0386 13.2236 90.0386 12.5069C90.0386 11.8419 90.162 11.2066 90.4135 10.6088C90.6651 10.0126 91.0135 9.48843 91.4588 9.04402C91.9071 8.59492 92.4258 8.24128 93.0242 7.97839C93.6226 7.71238 94.271 7.58093 94.9756 7.58093C95.7427 7.58093 96.4176 7.70768 97.0019 7.95961C97.5831 8.20998 98.0722 8.55267 98.4612 8.98769C98.8533 9.41958 99.147 9.9297 99.3486 10.5149C99.5501 11.1002 99.6486 11.7261 99.6486 12.3943C99.6486 12.4928 99.6454 12.5961 99.6408 12.6947C99.6329 12.7964 99.6251 12.8856 99.6111 12.9607C99.6001 13.0499 99.5923 13.1297 99.5923 13.2048H92.7883C92.9274 13.8088 93.2086 14.2501 93.6382 14.5255C94.0647 14.8025 94.5413 14.9418 95.0693 14.9418C95.5974 14.9418 96.0349 14.8291 96.377 14.6006C96.7223 14.3753 96.9957 14.0843 97.1972 13.7337L99.497 14.8854ZM96.9894 11.2801C96.966 11.1299 96.9035 10.9656 96.8098 10.7888C96.716 10.6151 96.5848 10.4523 96.4161 10.3084C96.2442 10.1629 96.038 10.0424 95.7943 9.94848C95.5474 9.85459 95.274 9.80921 94.974 9.80921C94.535 9.80921 94.1241 9.93596 93.7491 10.1848C93.3711 10.4367 93.0945 10.8029 92.918 11.2801H96.991H96.9894Z" fill="white"/>
<path d="M116.783 14.9417C115.4 16.6035 113.598 17.4345 111.373 17.4345C110.367 17.4345 109.432 17.2514 108.565 16.8868C107.697 16.5206 106.945 16.0214 106.311 15.3861C105.678 14.7524 105.176 14.006 104.812 13.15C104.448 12.2941 104.266 11.3693 104.266 10.3741C104.266 9.37886 104.448 8.45719 104.812 7.59968C105.176 6.74373 105.678 5.99888 106.311 5.36357C106.947 4.7267 107.697 4.22753 108.565 3.86293C109.431 3.49833 110.367 3.31525 111.373 3.31525C112.48 3.31525 113.437 3.50302 114.247 3.8817C115.06 4.26039 115.797 4.8065 116.461 5.52475L114.407 7.52457C114.055 7.12241 113.635 6.78598 113.144 6.51527C112.654 6.24456 112.07 6.10685 111.391 6.10685C110.801 6.10685 110.253 6.20857 109.743 6.41043C109.234 6.61228 108.792 6.90177 108.414 7.27733C108.039 7.65601 107.74 8.10667 107.529 8.62775C107.315 9.15196 107.208 9.73094 107.208 10.3725C107.208 11.0141 107.315 11.5962 107.529 12.1204C107.742 12.6415 108.039 13.0921 108.414 13.4708C108.792 13.8464 109.234 14.1374 109.743 14.3377C110.253 14.5396 110.802 14.6382 111.391 14.6382C112.107 14.6382 112.729 14.4958 113.257 14.2063C113.785 13.9168 114.263 13.5005 114.691 12.9607L116.783 14.9417Z" fill="white"/>
<path d="M122.311 17.4345C121.053 17.4345 119.971 17.098 119.058 16.4252C118.147 15.7507 117.504 14.7852 117.125 13.5271L119.897 12.4318C120.061 13.0734 120.331 13.6023 120.706 14.0154C121.084 14.4316 121.617 14.6382 122.309 14.6382C122.534 14.6382 122.751 14.6131 122.961 14.563C123.167 14.5145 123.35 14.4347 123.505 14.3299C123.662 14.2219 123.792 14.0858 123.894 13.9215C123.992 13.7572 124.044 13.5694 124.044 13.355C124.044 13.1406 124.003 12.9435 123.92 12.762C123.84 12.5789 123.703 12.4099 123.515 12.2518C123.328 12.0938 123.076 11.9373 122.762 11.7793C122.445 11.6228 122.052 11.4569 121.575 11.2801L120.744 10.9765C120.392 10.8529 120.031 10.6776 119.661 10.4586C119.291 10.2379 118.953 9.97192 118.653 9.65583C118.35 9.3413 118.107 8.97983 117.919 8.57142C117.732 8.163 117.635 7.70608 117.635 7.20222C117.635 6.66236 117.743 6.15223 117.957 5.67497C118.171 5.19614 118.471 4.78303 118.86 4.43721C119.252 4.09139 119.721 3.81755 120.275 3.61882C120.828 3.41696 121.436 3.31525 122.103 3.31525C122.806 3.31525 123.409 3.40601 123.912 3.58909C124.414 3.77217 124.84 4.00532 125.193 4.28699C125.545 4.56865 125.823 4.88787 126.032 5.23995C126.239 5.59203 126.4 5.93316 126.512 6.2602L123.967 7.33679C123.828 6.93463 123.608 6.60916 123.308 6.36192C123.005 6.11781 122.616 5.99419 122.139 5.99419C121.634 5.99419 121.236 6.09903 120.941 6.30558C120.645 6.51527 120.499 6.78128 120.499 7.10833C120.499 7.43537 120.649 7.7499 120.952 8.01591C121.252 8.2788 121.786 8.54169 122.552 8.8077L123.383 9.08937C124.525 9.48213 125.412 10.0016 126.04 10.6573C126.668 11.313 126.984 12.1939 126.984 13.3003C126.984 14.006 126.842 14.6162 126.557 15.1311C126.276 15.6475 125.911 16.0762 125.467 16.4142C125.018 16.7553 124.519 17.0104 123.958 17.1794C123.4 17.3484 122.848 17.4345 122.309 17.4345" fill="white"/>
<path d="M132.783 17.4345C131.525 17.4345 130.443 17.098 129.53 16.4252C128.619 15.7507 127.976 14.7852 127.599 13.5271L130.369 12.4318C130.533 13.0734 130.803 13.6023 131.178 14.0154C131.557 14.4316 132.089 14.6382 132.781 14.6382C133.006 14.6382 133.224 14.6131 133.433 14.563C133.639 14.5145 133.822 14.4347 133.977 14.3299C134.134 14.2219 134.264 14.0858 134.366 13.9215C134.464 13.7572 134.516 13.5694 134.516 13.355C134.516 13.1406 134.475 12.9435 134.392 12.762C134.313 12.5789 134.175 12.4099 133.988 12.2518C133.8 12.0938 133.549 11.9373 133.235 11.7793C132.92 11.6228 132.524 11.4569 132.047 11.2801L131.216 10.9765C130.864 10.8529 130.504 10.6776 130.133 10.4586C129.763 10.2379 129.429 9.97192 129.126 9.65583C128.822 9.3413 128.579 8.97983 128.391 8.57142C128.204 8.163 128.107 7.70608 128.107 7.20222C128.107 6.66236 128.215 6.15223 128.429 5.67497C128.643 5.19614 128.943 4.78303 129.332 4.43721C129.724 4.09139 130.193 3.81755 130.747 3.61882C131.3 3.41696 131.908 3.31525 132.575 3.31525C133.278 3.31525 133.881 3.40601 134.384 3.58909C134.886 3.77217 135.314 4.00532 135.666 4.28699C136.017 4.56865 136.295 4.88787 136.504 5.23995C136.711 5.59203 136.872 5.93316 136.984 6.2602L134.439 7.33679C134.3 6.93463 134.08 6.60916 133.78 6.36192C133.477 6.11781 133.088 5.99419 132.611 5.99419C132.106 5.99419 131.708 6.09903 131.413 6.30558C131.118 6.51527 130.971 6.78128 130.971 7.10833C130.971 7.43537 131.121 7.7499 131.424 8.01591C131.724 8.2788 132.258 8.54169 133.024 8.8077L133.855 9.08937C134.997 9.48213 135.884 10.0016 136.512 10.6573C137.14 11.313 137.456 12.1939 137.456 13.3003C137.456 14.006 137.314 14.6162 137.029 15.1311C136.748 15.6475 136.383 16.0762 135.939 16.4142C135.491 16.7553 134.991 17.0104 134.43 17.1794C133.872 17.3484 133.32 17.4345 132.781 17.4345" fill="white"/>
<path d="M47.3714 21.2307H50.7632L55.8174 34.749H52.574L51.5397 31.7274H46.598L45.5637 34.749H42.3203L47.3745 21.2307H47.3714ZM50.5945 29.0469L49.6133 26.2146L49.1634 24.5544H48.9728L48.5228 26.2146L47.5417 29.0469H50.5961H50.5945Z" fill="white"/>
<path d="M65.1661 32.3893C64.7131 33.2186 64.1131 33.8712 63.3679 34.3437C62.6195 34.8132 61.7102 35.0494 60.6432 35.0494C59.9245 35.0494 59.262 34.929 58.6543 34.6817C58.0434 34.4376 57.5169 34.0965 57.0701 33.6646C56.6248 33.2296 56.2795 32.7116 56.0358 32.1076C55.789 31.5036 55.6655 30.8401 55.6655 30.1234C55.6655 29.4068 55.789 28.7464 56.0358 28.1424C56.2795 27.5384 56.6264 27.0204 57.0701 26.5854C57.5185 26.1504 58.0434 25.8124 58.6543 25.5652C59.2636 25.3211 59.9245 25.1974 60.6432 25.1974C61.6962 25.1974 62.6055 25.4306 63.3679 25.8954C64.1272 26.3632 64.6896 27.0048 65.0537 27.8232L62.4524 28.9154C62.2508 28.5508 62.0071 28.2817 61.7259 28.1049C61.4415 27.9312 61.0822 27.842 60.6432 27.842C60.026 27.842 59.5151 28.047 59.1074 28.4538C58.6965 28.8638 58.4934 29.4209 58.4934 30.1234C58.4934 30.826 58.6965 31.3862 59.1074 31.7962C59.5151 32.2046 60.0276 32.4081 60.6432 32.4081C61.0822 32.4081 61.4587 32.311 61.7712 32.1154C62.0883 31.9198 62.3508 31.635 62.5648 31.2564L65.1661 32.3893Z" fill="white"/>
<path d="M71.5847 33.9197H71.3973C71.0942 34.2467 70.7505 34.5159 70.3708 34.7303C69.988 34.9446 69.4943 35.0495 68.8913 35.0495C68.4241 35.0495 67.9882 34.9744 67.5805 34.8242C67.1727 34.6739 66.8134 34.4596 66.5056 34.1826C66.1978 33.9056 65.9556 33.5723 65.7822 33.1811C65.6057 32.7915 65.5166 32.3565 65.5166 31.8792C65.5166 31.4019 65.6103 30.9904 65.8009 30.607C65.9884 30.2221 66.2462 29.8935 66.5727 29.6165C66.8993 29.338 67.2852 29.1251 67.7304 28.9718C68.1788 28.8216 68.6632 28.7465 69.1912 28.7465C69.7568 28.7465 70.2255 28.784 70.5958 28.8591C70.9661 28.9342 71.2957 29.0234 71.5847 29.1251V28.8779C71.5847 28.4757 71.4191 28.1346 71.0864 27.8498C70.7505 27.5682 70.3036 27.4258 69.7381 27.4258C68.921 27.4258 68.2179 27.7591 67.6273 28.4272L65.7025 27.0659C66.2306 26.4368 66.8446 25.9674 67.5414 25.6607C68.2382 25.3524 69.0084 25.1959 69.8505 25.1959C71.3598 25.1959 72.4972 25.5339 73.2643 26.2052C74.0314 26.8796 74.4142 27.9015 74.4142 29.2754V34.7506H71.5863V33.9213L71.5847 33.9197ZM71.5847 31.1046C71.2957 30.992 71.0114 30.9028 70.727 30.8386C70.4458 30.7776 70.1536 30.7447 69.8505 30.7447C69.349 30.7447 68.9709 30.8496 68.7194 31.0561C68.4694 31.2658 68.3444 31.5318 68.3444 31.8589C68.3444 32.1859 68.4632 32.4472 68.7007 32.6428C68.9397 32.8384 69.2537 32.9354 69.6443 32.9354C69.9584 32.9354 70.2364 32.8822 70.4833 32.7743C70.727 32.6663 70.9317 32.527 71.0942 32.3502C71.2582 32.1734 71.3816 31.9762 71.4613 31.7571C71.5441 31.5365 71.5847 31.319 71.5847 31.1046Z" fill="white"/>
<path d="M82.5271 33.7288H82.3365C82.124 34.0934 81.7944 34.4048 81.3475 34.663C80.9023 34.9212 80.3398 35.0495 79.6618 35.0495C79.0712 35.0495 78.5056 34.9321 77.9651 34.6927C77.4261 34.4533 76.9511 34.1153 76.5418 33.6834C76.134 33.2484 75.8106 32.7304 75.5715 32.1264C75.3325 31.5224 75.2153 30.8542 75.2153 30.1235C75.2153 29.3927 75.3341 28.7277 75.5715 28.1237C75.8106 27.5196 76.134 27.0017 76.5418 26.5667C76.9527 26.1317 77.4261 25.7968 77.9651 25.5574C78.5072 25.318 79.0728 25.1975 79.6618 25.1975C80.3398 25.1975 80.9038 25.3258 81.3475 25.584C81.7959 25.8422 82.1256 26.1567 82.3365 26.5182H82.5271L82.3365 25.1975V21.2338H85.1644V34.7522H82.5255V33.7319L82.5271 33.7288ZM80.2836 32.4081C80.5836 32.4081 80.871 32.3549 81.1413 32.2469C81.4116 32.1389 81.6506 31.9887 81.8569 31.7931C82.0631 31.5991 82.2271 31.3612 82.3474 31.0764C82.4662 30.7948 82.5271 30.4771 82.5271 30.1235C82.5271 29.7698 82.4662 29.4569 82.3474 29.1815C82.2271 28.9045 82.0631 28.6651 81.8569 28.4648C81.6506 28.2629 81.4116 28.108 81.1413 28C80.871 27.8921 80.5836 27.8389 80.2836 27.8389C79.9836 27.8389 79.6961 27.8921 79.4258 28C79.1556 28.108 78.9165 28.2629 78.7103 28.4648C78.5041 28.6666 78.34 28.9061 78.2197 29.1815C78.101 29.4584 78.0401 29.7714 78.0401 30.1235C78.0401 30.4755 78.101 30.7948 78.2197 31.0764C78.34 31.3612 78.5041 31.6006 78.7103 31.7931C78.9165 31.9887 79.1556 32.1389 79.4258 32.2469C79.6961 32.3549 79.9836 32.4081 80.2836 32.4081Z" fill="white"/>
<path d="M95.5429 32.5019C95.0898 33.2937 94.4977 33.9181 93.7634 34.3703C93.026 34.8241 92.1386 35.0494 91.0965 35.0494C90.3809 35.0494 89.7154 34.9258 89.1076 34.6817C88.4983 34.4345 87.9687 34.0934 87.5156 33.6536C87.0625 33.2124 86.711 32.6929 86.4594 32.0967C86.2079 31.4973 86.0845 30.8401 86.0845 30.1234C86.0845 29.4584 86.2079 28.8231 86.4594 28.2253C86.711 27.6292 87.0594 27.1049 87.5046 26.6605C87.953 26.2114 88.4717 25.8578 89.0701 25.5949C89.6685 25.3289 90.3169 25.1974 91.0215 25.1974C91.7886 25.1974 92.4635 25.3242 93.0478 25.5761C93.629 25.8265 94.1181 26.1692 94.5071 26.6042C94.8992 27.0361 95.1929 27.5462 95.3945 28.1315C95.596 28.7167 95.6945 29.3426 95.6945 30.0108C95.6945 30.1094 95.6913 30.2126 95.6866 30.3112C95.6788 30.4129 95.671 30.5021 95.657 30.5772C95.646 30.6664 95.6382 30.7462 95.6382 30.8214H88.8342C88.9733 31.4254 89.2545 31.8666 89.6841 32.142C90.1106 32.419 90.5872 32.5583 91.1152 32.5583C91.6433 32.5583 92.0808 32.4456 92.4229 32.2172C92.7682 31.9918 93.0416 31.7008 93.2431 31.3503L95.5429 32.5019ZM93.0353 28.8966C93.0119 28.7464 92.9494 28.5821 92.8557 28.4053C92.7619 28.2316 92.6307 28.0689 92.462 27.9249C92.2901 27.7794 92.0839 27.6589 91.8402 27.565C91.5933 27.4711 91.3199 27.4257 91.0199 27.4257C90.5809 27.4257 90.17 27.5525 89.795 27.8013C89.417 28.0532 89.1404 28.4194 88.9639 28.8966H93.0369H93.0353Z" fill="white"/>
<path d="M96.6085 25.4979H99.2473V26.6684H99.4379C99.7379 26.2036 100.124 25.8406 100.596 25.584C101.067 25.3258 101.622 25.1974 102.263 25.1974C102.967 25.1974 103.552 25.3633 104.016 25.6966C104.48 26.0299 104.806 26.4164 104.997 26.8561C105.273 26.4149 105.667 26.0284 106.184 25.6966C106.698 25.3633 107.345 25.1974 108.125 25.1974C108.678 25.1974 109.162 25.2882 109.574 25.4713C109.99 25.6512 110.334 25.9063 110.601 26.2333C110.871 26.5604 111.076 26.95 111.215 27.4038C111.352 27.8576 111.421 28.3537 111.421 28.8966V34.7474H108.595V29.4412C108.595 28.9624 108.482 28.5759 108.265 28.2817C108.043 27.9859 107.721 27.8388 107.292 27.8388C106.678 27.8388 106.211 28.0861 105.898 28.5852C105.584 29.0829 105.426 29.7448 105.426 30.5757V34.749H102.6V29.4428C102.6 28.9639 102.481 28.5774 102.252 28.2832C102.019 27.9875 101.656 27.8404 101.166 27.8404C100.589 27.8404 100.155 28.0876 99.866 28.5868C99.5769 29.0844 99.4348 29.7463 99.4348 30.5772V34.7506H96.6069V25.4995L96.6085 25.4979Z" fill="white"/>
<path d="M115.275 34.3515L111.355 25.4995H114.616L116.744 30.596H116.935L118.97 25.4995H122.154L116.369 38.8253H113.277L115.275 34.3515Z" fill="white"/>
<path d="M127.842 34.9687C127.358 34.9687 126.905 34.8746 126.479 34.6908C126.063 34.5071 125.686 34.2606 125.373 33.938C125.05 33.6243 124.803 33.2478 124.62 32.831C124.436 32.4098 124.342 31.9572 124.342 31.4687C124.342 30.9802 124.436 30.5366 124.62 30.1153C124.803 29.6851 125.05 29.3176 125.373 28.9905C125.686 28.6768 126.063 28.4213 126.479 28.2376C126.901 28.0583 127.358 27.9687 127.842 27.9687C128.326 27.9687 128.774 28.0628 129.195 28.2376C129.625 28.4213 129.993 28.6768 130.32 28.9905C130.634 29.3131 130.889 29.6806 131.073 30.1153C131.248 30.5366 131.342 30.9937 131.342 31.4687C131.342 31.9437 131.248 32.4053 131.073 32.831C130.889 33.2478 130.634 33.6243 130.32 33.938C129.997 34.2606 129.63 34.5071 129.195 34.6908C128.774 34.8746 128.317 34.9687 127.842 34.9687ZM127.842 34.2382C128.227 34.2382 128.586 34.162 128.926 34.0141C129.258 33.8663 129.558 33.6691 129.809 33.4136C130.056 33.1582 130.257 32.8669 130.401 32.5308C130.54 32.1992 130.607 31.8406 130.607 31.4687C130.607 31.0967 130.54 30.7248 130.401 30.3842C130.253 30.0526 130.056 29.7523 129.809 29.5103C129.554 29.2549 129.253 29.0577 128.926 28.9098C128.586 28.7709 128.227 28.6992 127.842 28.6992C127.456 28.6992 127.111 28.7709 126.78 28.9098C126.439 29.0532 126.148 29.2549 125.897 29.5103C125.641 29.7568 125.444 30.057 125.296 30.3842C125.148 30.7248 125.072 31.0833 125.072 31.4687C125.072 31.8541 125.148 32.1992 125.296 32.5308C125.444 32.8669 125.641 33.1627 125.897 33.4136C126.152 33.6691 126.444 33.8663 126.78 34.0141C127.111 34.162 127.47 34.2382 127.842 34.2382ZM126.677 33.1806V29.7433H128.138C128.429 29.7433 128.693 29.8509 128.913 30.057C129.137 30.2677 129.244 30.5276 129.244 30.8413C129.244 31.0743 129.177 31.2805 129.029 31.4732C128.881 31.6569 128.698 31.7824 128.483 31.8406L128.451 31.872L129.365 33.1492V33.1806H128.572L127.743 31.9034H127.376V33.1806H126.677ZM128.075 31.267C128.196 31.267 128.303 31.2312 128.406 31.1505C128.501 31.0743 128.545 30.9712 128.545 30.8413C128.545 30.7337 128.505 30.6396 128.429 30.55C128.344 30.4559 128.227 30.4111 128.088 30.4111H127.371V31.2625H128.07L128.075 31.267Z" fill="white"/>
</g>
<defs>
<linearGradient id="paint0_linear_1723_10724" x1="-8.99093" y1="-6.52806" x2="25.8869" y2="68.2136" gradientUnits="userSpaceOnUse">
<stop stop-color="#FFC73F"/>
<stop offset="1" stop-color="#F48220"/>
</linearGradient>
<linearGradient id="paint1_linear_1723_10724" x1="-1.73094" y1="-9.91596" x2="33.1468" y2="64.8257" gradientUnits="userSpaceOnUse">
<stop stop-color="#FFC73F"/>
<stop offset="1" stop-color="#F48220"/>
</linearGradient>
<linearGradient id="paint2_linear_1723_10724" x1="6.69799" y1="-13.8501" x2="41.5758" y2="60.8915" gradientUnits="userSpaceOnUse">
<stop stop-color="#FFC73F"/>
<stop offset="1" stop-color="#F48220"/>
</linearGradient>
<clipPath id="clip0_1723_10724">
<rect width="138" height="37" fill="white"/>
</clipPath>
</defs>
</svg>
